<mxfile host="Electron" agent="Mozilla/5.0 (Windows NT 10.0; Win64; x64) AppleWebKit/537.36 (KHTML, like Gecko) draw.io/24.7.5 Chrome/126.0.6478.183 Electron/31.3.0 Safari/537.36" version="24.7.5">
  <diagram name="Page-1" id="QAcQxfhFPSDBfZdCgXpX">
    <mxGraphModel dx="1674" dy="836" grid="1" gridSize="10" guides="1" tooltips="1" connect="1" arrows="1" fold="1" page="1" pageScale="1" pageWidth="827" pageHeight="1169" math="0" shadow="0">
      <root>
        <mxCell id="0" />
        <mxCell id="1" parent="0" />
        <mxCell id="Y1YdN2ggMdJQCuKRLtyw-1" value="" style="whiteSpace=wrap;html=1;aspect=fixed;" parent="1" vertex="1">
          <mxGeometry x="130" y="20" width="600" height="600" as="geometry" />
        </mxCell>
        <mxCell id="Y1YdN2ggMdJQCuKRLtyw-2" value="Administrateur" style="shape=umlActor;verticalLabelPosition=bottom;verticalAlign=top;html=1;outlineConnect=0;" parent="1" vertex="1">
          <mxGeometry x="70" y="90" width="30" height="60" as="geometry" />
        </mxCell>
        <mxCell id="Y1YdN2ggMdJQCuKRLtyw-3" value="Utilisateur" style="shape=umlActor;verticalLabelPosition=bottom;verticalAlign=top;html=1;outlineConnect=0;" parent="1" vertex="1">
          <mxGeometry x="70" y="525" width="30" height="60" as="geometry" />
        </mxCell>
        <mxCell id="Y1YdN2ggMdJQCuKRLtyw-7" value="Visualisation du projet de capteur de température dans la salle serveur" style="rounded=0;whiteSpace=wrap;html=1;" parent="1" vertex="1">
          <mxGeometry x="294" y="20" width="416" height="30" as="geometry" />
        </mxCell>
        <mxCell id="Y1YdN2ggMdJQCuKRLtyw-9" value="Configuration du capteur&amp;nbsp; Arduino" style="strokeWidth=2;html=1;shape=mxgraph.flowchart.start_1;whiteSpace=wrap;" parent="1" vertex="1">
          <mxGeometry x="140" y="150" width="180" height="40" as="geometry" />
        </mxCell>
        <mxCell id="Y1YdN2ggMdJQCuKRLtyw-10" value="Configuration du serveur mosquitto" style="strokeWidth=2;html=1;shape=mxgraph.flowchart.start_1;whiteSpace=wrap;" parent="1" vertex="1">
          <mxGeometry x="485" y="120" width="220" height="40" as="geometry" />
        </mxCell>
        <mxCell id="Y1YdN2ggMdJQCuKRLtyw-11" value="" style="endArrow=classic;html=1;rounded=0;exitX=0.5;exitY=0.5;exitDx=0;exitDy=0;exitPerimeter=0;" parent="1" source="Y1YdN2ggMdJQCuKRLtyw-2" target="Y1YdN2ggMdJQCuKRLtyw-9" edge="1">
          <mxGeometry width="50" height="50" relative="1" as="geometry">
            <mxPoint x="380" y="390" as="sourcePoint" />
            <mxPoint x="430" y="340" as="targetPoint" />
          </mxGeometry>
        </mxCell>
        <mxCell id="Y1YdN2ggMdJQCuKRLtyw-12" value="" style="endArrow=classic;html=1;rounded=0;entryX=0;entryY=0.5;entryDx=0;entryDy=0;entryPerimeter=0;" parent="1" source="Y1YdN2ggMdJQCuKRLtyw-2" target="Y1YdN2ggMdJQCuKRLtyw-10" edge="1">
          <mxGeometry width="50" height="50" relative="1" as="geometry">
            <mxPoint x="380" y="390" as="sourcePoint" />
            <mxPoint x="430" y="340" as="targetPoint" />
          </mxGeometry>
        </mxCell>
        <mxCell id="Y1YdN2ggMdJQCuKRLtyw-13" value="Se connecter au serveur mosquitto" style="strokeWidth=2;html=1;shape=mxgraph.flowchart.start_1;whiteSpace=wrap;" parent="1" vertex="1">
          <mxGeometry x="420" y="380" width="290" height="60" as="geometry" />
        </mxCell>
        <mxCell id="Y1YdN2ggMdJQCuKRLtyw-16" value="Visualisation d&#39;une page web avec les températures afficher" style="strokeWidth=2;html=1;shape=mxgraph.flowchart.start_1;whiteSpace=wrap;" parent="1" vertex="1">
          <mxGeometry x="200" y="530" width="250" height="40" as="geometry" />
        </mxCell>
        <mxCell id="Y1YdN2ggMdJQCuKRLtyw-18" value="" style="endArrow=classic;html=1;rounded=0;exitX=0.556;exitY=1;exitDx=0;exitDy=0;exitPerimeter=0;" parent="1" source="Y1YdN2ggMdJQCuKRLtyw-9" target="Y1YdN2ggMdJQCuKRLtyw-16" edge="1">
          <mxGeometry width="50" height="50" relative="1" as="geometry">
            <mxPoint x="416.3600000000001" y="439.31999999999994" as="sourcePoint" />
            <mxPoint x="430" y="340" as="targetPoint" />
          </mxGeometry>
        </mxCell>
        <mxCell id="Y1YdN2ggMdJQCuKRLtyw-19" value="" style="endArrow=classic;html=1;rounded=0;entryX=0.145;entryY=0.145;entryDx=0;entryDy=0;entryPerimeter=0;exitX=1;exitY=1;exitDx=0;exitDy=0;exitPerimeter=0;" parent="1" source="Y1YdN2ggMdJQCuKRLtyw-2" target="Y1YdN2ggMdJQCuKRLtyw-16" edge="1">
          <mxGeometry width="50" height="50" relative="1" as="geometry">
            <mxPoint x="353.57142857142867" y="485" as="sourcePoint" />
            <mxPoint x="255" y="350" as="targetPoint" />
          </mxGeometry>
        </mxCell>
        <mxCell id="h_7bJpUWn6J1QGVlP_Um-1" value="Capteur DHT11+Arduino" style="shape=umlActor;verticalLabelPosition=bottom;verticalAlign=top;html=1;outlineConnect=0;" parent="1" vertex="1">
          <mxGeometry x="780" y="300" width="30" height="60" as="geometry" />
        </mxCell>
        <mxCell id="h_7bJpUWn6J1QGVlP_Um-3" value="" style="endArrow=classic;html=1;rounded=0;entryX=1;entryY=0.5;entryDx=0;entryDy=0;entryPerimeter=0;" parent="1" source="h_7bJpUWn6J1QGVlP_Um-1" target="Y1YdN2ggMdJQCuKRLtyw-13" edge="1">
          <mxGeometry width="50" height="50" relative="1" as="geometry">
            <mxPoint x="390" y="400" as="sourcePoint" />
            <mxPoint x="440" y="350" as="targetPoint" />
          </mxGeometry>
        </mxCell>
        <mxCell id="h_7bJpUWn6J1QGVlP_Um-5" value="" style="endArrow=classic;html=1;rounded=0;entryX=0.056;entryY=0.675;entryDx=0;entryDy=0;entryPerimeter=0;" parent="1" source="Y1YdN2ggMdJQCuKRLtyw-3" target="Y1YdN2ggMdJQCuKRLtyw-16" edge="1">
          <mxGeometry width="50" height="50" relative="1" as="geometry">
            <mxPoint x="304" y="510" as="sourcePoint" />
            <mxPoint x="235.24" y="389.5999999999999" as="targetPoint" />
          </mxGeometry>
        </mxCell>
        <mxCell id="KoUqM5Xo4oMtkOQYbgA6-2" value="Authentification au serveur Proxmox + VM" style="strokeWidth=2;html=1;shape=mxgraph.flowchart.start_1;whiteSpace=wrap;" vertex="1" parent="1">
          <mxGeometry x="480" y="280" width="230" height="65" as="geometry" />
        </mxCell>
        <mxCell id="KoUqM5Xo4oMtkOQYbgA6-3" value="" style="endArrow=classic;html=1;rounded=0;entryX=0.5;entryY=0;entryDx=0;entryDy=0;entryPerimeter=0;exitX=0.5;exitY=1;exitDx=0;exitDy=0;exitPerimeter=0;" edge="1" parent="1" source="Y1YdN2ggMdJQCuKRLtyw-10" target="KoUqM5Xo4oMtkOQYbgA6-2">
          <mxGeometry width="50" height="50" relative="1" as="geometry">
            <mxPoint x="110" y="130" as="sourcePoint" />
            <mxPoint x="490" y="120" as="targetPoint" />
          </mxGeometry>
        </mxCell>
        <mxCell id="KoUqM5Xo4oMtkOQYbgA6-4" value="" style="endArrow=classic;html=1;rounded=0;entryX=0.5;entryY=0;entryDx=0;entryDy=0;entryPerimeter=0;exitX=0.462;exitY=0.96;exitDx=0;exitDy=0;exitPerimeter=0;" edge="1" parent="1" source="KoUqM5Xo4oMtkOQYbgA6-2" target="Y1YdN2ggMdJQCuKRLtyw-13">
          <mxGeometry width="50" height="50" relative="1" as="geometry">
            <mxPoint x="600" y="140" as="sourcePoint" />
            <mxPoint x="575" y="205" as="targetPoint" />
          </mxGeometry>
        </mxCell>
        <mxCell id="KoUqM5Xo4oMtkOQYbgA6-5" value="Envoie des données via un topic" style="strokeWidth=2;html=1;shape=mxgraph.flowchart.start_1;whiteSpace=wrap;" vertex="1" parent="1">
          <mxGeometry x="310" y="230" width="180" height="40" as="geometry" />
        </mxCell>
        <mxCell id="KoUqM5Xo4oMtkOQYbgA6-7" value="" style="endArrow=classic;html=1;rounded=0;exitX=0.9;exitY=0.9;exitDx=0;exitDy=0;exitPerimeter=0;entryX=0.5;entryY=0;entryDx=0;entryDy=0;entryPerimeter=0;" edge="1" parent="1" source="Y1YdN2ggMdJQCuKRLtyw-9" target="KoUqM5Xo4oMtkOQYbgA6-5">
          <mxGeometry width="50" height="50" relative="1" as="geometry">
            <mxPoint x="95" y="130" as="sourcePoint" />
            <mxPoint x="182" y="160" as="targetPoint" />
          </mxGeometry>
        </mxCell>
        <mxCell id="KoUqM5Xo4oMtkOQYbgA6-8" value="" style="endArrow=classic;html=1;rounded=0;exitX=0.5;exitY=1;exitDx=0;exitDy=0;exitPerimeter=0;entryX=0.145;entryY=0.145;entryDx=0;entryDy=0;entryPerimeter=0;" edge="1" parent="1" source="KoUqM5Xo4oMtkOQYbgA6-5" target="Y1YdN2ggMdJQCuKRLtyw-13">
          <mxGeometry width="50" height="50" relative="1" as="geometry">
            <mxPoint x="312" y="196" as="sourcePoint" />
            <mxPoint x="410" y="240" as="targetPoint" />
          </mxGeometry>
        </mxCell>
        <mxCell id="KoUqM5Xo4oMtkOQYbgA6-9" value="Visualisation des données sur le serveur mosquitto" style="strokeWidth=2;html=1;shape=mxgraph.flowchart.start_1;whiteSpace=wrap;" vertex="1" parent="1">
          <mxGeometry x="430" y="465" width="290" height="60" as="geometry" />
        </mxCell>
        <mxCell id="KoUqM5Xo4oMtkOQYbgA6-10" value="" style="endArrow=classic;html=1;rounded=0;exitX=0.5;exitY=1;exitDx=0;exitDy=0;exitPerimeter=0;entryX=0.476;entryY=0.083;entryDx=0;entryDy=0;entryPerimeter=0;" edge="1" parent="1" source="Y1YdN2ggMdJQCuKRLtyw-13" target="KoUqM5Xo4oMtkOQYbgA6-9">
          <mxGeometry width="50" height="50" relative="1" as="geometry">
            <mxPoint x="410" y="280" as="sourcePoint" />
            <mxPoint x="472" y="399" as="targetPoint" />
          </mxGeometry>
        </mxCell>
      </root>
    </mxGraphModel>
  </diagram>
</mxfile>
